<!--?xml version="1.0" encoding="utf-8"?-->
<!-- Generator: Adobe Illustrator 18.1.1, SVG Export Plug-In . SVG Version: 6.00 Build 0)  -->

<svg version="1.1" id="_x32_" xmlns="http://www.w3.org/2000/svg" xmlns:xlink="http://www.w3.org/1999/xlink" x="0px" y="0px" viewBox="0 0 512 512" style="width: 64px; height: 64px; opacity: 1;" xml:space="preserve">
<style type="text/css">
	.st0{fill:#4B4B4B;}
</style>
<g>
	<path class="st0" d="M510.394,269.967c-1.135-1.242-2.735-1.972-4.425-2.006l-25.335-0.58c-3.198-0.067-6.09-1.906-7.525-4.773
		l-11.925-23.851c-1.102-2.188-1.21-4.756-0.298-7.044l23.469-59.071c0.738-1.84,0.539-3.928-0.539-5.602l-2.378-3.696
		c-0.904-1.408-2.354-2.387-4.003-2.718c-1.65-0.315-3.365,0.049-4.732,1.011l-48.315,34.111c-2.271,1.607-5.179,2.005-7.815,1.094
		l-73.682-25.592c-1.326-0.464-2.528-1.242-3.489-2.27L217.033,37.51c-0.423-0.464-0.903-0.878-1.417-1.227L185.84,15.714
		c-2.686-1.84-6.34-1.292-8.354,1.276l-22.102,28.127c-1.334,1.69-1.989,3.828-1.824,5.967l6.448,87.032
		c0.024,0.315,0.024,0.631,0.017,0.928l-1.575,47.188c-0.058,1.84-0.696,3.597-1.823,5.038l-22.691,29.072
		c-1.574,2.022-2.179,4.641-1.624,7.144l8.329,38.204c0.564,2.586-0.092,5.288-1.774,7.343l-9.738,11.768
		c-2.171,2.635-5.694,3.746-8.975,2.818l-13.326-3.729c-1.5-0.415-3.092-0.431-4.6-0.017l-11.966,3.266
		c-2.66,0.729-5.512,0.132-7.666-1.591l-13.98-11.188c-2.254-1.807-5.271-2.353-8.022-1.475l-9.083,2.901
		c-1.815,0.58-3.257,1.972-3.912,3.746c-0.654,1.79-0.456,3.779,0.555,5.387l12.067,19.425c1.873,3,1.716,6.846-0.39,9.696
		l-12.058,16.259c-0.837,1.127-1.939,2.039-3.207,2.652l-32.842,15.713c-2.462,1.177-4.227,3.447-4.749,6.116l-6.812,34.773
		c-0.489,2.454,0.124,5.006,1.674,6.978l19.608,25.011c1.492,1.922,2.122,4.358,1.724,6.746l-9.265,55.574
		c-0.621,3.73,1.268,7.442,4.657,9.133l6.92,3.464c3.472,1.74,7.682,0.944,10.276-1.956l37.309-41.452
		c2.262-2.503,5.777-3.464,9.008-2.453l19.301,6.066c2.984,0.945,6.249,0.182,8.519-1.972l5.155-4.873
		c1.798-1.707,2.784-4.11,2.685-6.596c-0.1-2.486-1.26-4.807-3.191-6.382l-21.779-17.652c-1.111-0.912-2.42-1.508-3.821-1.774
		l-13.591-2.602c-1.276-0.232-2.486-0.762-3.53-1.541l-22.036-16.376c-3.365-2.486-4.45-7.044-2.577-10.79l10.782-21.564
		c1.674-3.332,5.304-5.221,9.008-4.674l10.616,1.591l29.122,27.712c3.09,2.934,7.848,3.182,11.22,0.58l40.806-31.442
		c2.801-2.155,6.638-2.386,9.679-0.58l123.381,73.26c1.542,0.911,3.407,1.11,5.106,0.546c1.706-0.58,3.074-1.856,3.754-3.514
		l25.4-62.104c0.456-1.111,1.127-2.105,1.989-2.934l40.69-39.381c1.873-1.824,4.467-2.685,7.06-2.37l37.375,4.591
		c1.65,0.216,3.316-0.066,4.808-0.779l90.38-43.608c1.981-0.961,3.307-2.916,3.464-5.121l0.134-1.757
		C512.101,272.884,511.53,271.227,510.394,269.967z" style="fill: rgb(75, 75, 75);"></path>
</g>
</svg>
